<?xml version="1.0" encoding="UTF-8"?>
<svg id="Livello_2" data-name="Livello 2" xmlns="http://www.w3.org/2000/svg" viewBox="0 0 700 610">
  <defs>
    <style>
      .cls-1 {
        fill: #79b533;
      }

      .cls-2 {
        fill: #0061a6;
      }

      .cls-3 {
        fill: #ee7f20;
      }

      .cls-4 {
        fill: #29384f;
      }

      .cls-5 {
        fill: #a82681;
      }
    </style>
  </defs>
  <g>
    <g>
      <g>
        <path class="cls-1" d="m166.46,392.09c-24.69-34.12-39.87-71.59-44.14-113.15-6.33-61.58,9.11-117.44,47.43-166.03C241.42,22.02,367.76,1.9,462.48,61.33c11.09,6.96,21.51,14.81,31.14,23.73,5.33,4.94,11.57,5.45,17.44,2.14,5.38-3.03,8.24-9.41,7.01-15.54-.83-4.14-3.45-7.04-6.56-9.64-13.11-10.98-27.19-20.53-42.35-28.39C414.98,5.58,357.96-2.21,298.58,11.81c-116.91,27.6-198.08,138.08-183.37,261.25,5.04,42.2,20.95,80.12,46.37,114.09,1.37,1.83,3.24,3.3,4.88,4.94Z"/>
        <path class="cls-2" d="m539.2,114.01c21.13,32.06,34.4,66.88,38.33,104.97,6.18,59.93-8.18,114.5-44.58,162.74-68.32,90.55-191.78,115.5-289.72,58.82-12.97-7.5-25-16.3-36.06-26.44-8.18-7.5-19.01-6.15-23.8,2.7-3.22,5.95-2.36,12.24,2.69,17.28,6.3,6.29,13.62,11.37,20.93,16.37,83.04,56.82,192.77,57.41,275.37.23,109.92-76.08,134.25-219.64,66.2-324.74-2.75-4.25-5.3-8.71-9.36-11.93Z"/>
        <path class="cls-3" d="m241.18,87.57c11.92-7.13,23.7-13.76,36.53-18.18,69.14-23.84,133.24-14.66,190.19,31.75,66.1,53.86,86.27,144.29,51.01,221.84-7.19,15.81-16.58,30.24-28.03,43.32-1.23,1.4-2.56,2.74-3.67,4.23-4.34,5.79-3.81,12.55,1.25,16.94,5.05,4.38,12.14,4.21,16.98-.86,3.37-3.53,6.36-7.46,9.26-11.39,50.4-68.23,53.71-161.06,7.71-232.23-48.14-74.48-136.93-108.08-220.89-85.23-19.95,5.43-38.6,13.88-55.88,25.28-1.66,1.1-3.74,1.83-4.46,4.56Z"/>
        <path class="cls-5" d="m459.39,410.28c-23.95,15.18-48.56,24.89-75.24,28.77-56.31,8.17-107.01-5.06-151.4-40.94-64.73-52.31-88.43-144.49-51.05-224.25,7.17-15.29,16.35-29.32,27.55-41.99,1.24-1.4,2.57-2.73,3.66-4.23,4.19-5.82,3.49-12.53-1.68-16.96-4.79-4.11-11.71-3.98-16.47.84-3.43,3.47-6.48,7.37-9.32,11.34-35.62,49.97-48.16,105.12-35.69,165.31,18.09,87.34,92.79,152.45,181.73,158.93,44.05,3.21,84.7-7.33,121.89-31.18,1.94-1.24,4.1-2.2,6.01-5.63Z"/>
      </g>
      <g>
        <rect x="227.01" y="225.69" width="36.83" height="109"/>
        <polygon points="466.16 225.91 466.16 168.48 382.94 270.12 299.71 168.48 299.71 334.69 336.54 334.69 336.54 272.03 382.74 328.23 466.16 225.91"/>
        <circle cx="454.68" cy="314.74" r="19.96"/>
        <circle cx="245.42" cy="186.13" r="19.96"/>
      </g>
    </g>
    <g>
      <path class="cls-4" d="m36.06,553.17l-4.43,1.12c-.6-1.98-1.57-3.54-2.93-4.69-1.36-1.15-2.83-1.72-4.4-1.72-1.74,0-3.16.59-4.26,1.77-1.1,1.18-1.64,2.76-1.64,4.74,0,1.74.58,3.56,1.75,5.45.72,1.19,2.47,3.04,5.23,5.55,2.87,2.59,4.87,5.01,6.01,7.26,1.14,2.24,1.71,4.44,1.71,6.59,0,2.28-.62,4.47-1.87,6.57-1.24,2.11-2.92,3.76-5.02,4.98-2.11,1.21-4.34,1.82-6.7,1.82-3,0-5.6-.96-7.8-2.87-2.2-1.91-3.78-4.72-4.74-8.42l4.34-1.47c.68,2.81,1.79,4.89,3.32,6.25,1.53,1.36,3.3,2.04,5.3,2.04,2.27,0,4.23-.84,5.87-2.52,1.64-1.68,2.46-3.75,2.46-6.22,0-1.81-.46-3.57-1.39-5.3-.93-1.72-2.74-3.8-5.44-6.22-2.89-2.64-4.77-4.66-5.65-6.06-1.42-2.34-2.14-4.81-2.14-7.4,0-3.21,1.05-5.86,3.14-7.96,2.09-2.09,4.69-3.14,7.8-3.14,2.62,0,4.94.83,6.99,2.49,2.04,1.66,3.54,4.11,4.5,7.37Z"/>
      <path class="cls-4" d="m74.59,574.95h-30.94c-.06,4.13,1.01,7.37,3.22,9.73,2.21,2.36,5.16,3.54,8.84,3.54,2.45,0,4.71-.5,6.79-1.5,2.08-1,3.81-2.4,5.17-4.21l3.32,2.71c-1.68,2.15-3.88,3.87-6.59,5.15-2.71,1.29-5.64,1.93-8.79,1.93-5.44,0-9.53-1.69-12.26-5.06-2.73-3.37-4.1-7.16-4.1-11.37,0-3.45.92-6.76,2.76-9.95,1.84-3.19,4.3-5.67,7.38-7.45,3.08-1.78,6.42-2.66,10.02-2.66,4.44,0,8.12,1.5,11.04,4.51,2.91,3.01,4.37,6.84,4.37,11.5,0,.85-.07,1.89-.22,3.13Zm-4.08-3.89c-.13-3.27-1.24-5.91-3.35-7.94-2.11-2.03-4.75-3.04-7.94-3.04-3.47,0-6.52.98-9.17,2.93-2.65,1.95-4.52,4.63-5.63,8.05h26.09Z"/>
      <path class="cls-4" d="m115.41,574.95h-30.94c-.06,4.13,1.01,7.37,3.22,9.73s5.16,3.54,8.84,3.54c2.45,0,4.71-.5,6.79-1.5,2.08-1,3.81-2.4,5.17-4.21l3.32,2.71c-1.68,2.15-3.88,3.87-6.59,5.15-2.71,1.29-5.64,1.93-8.79,1.93-5.44,0-9.53-1.69-12.26-5.06-2.73-3.37-4.1-7.16-4.1-11.37,0-3.45.92-6.76,2.76-9.95,1.84-3.19,4.3-5.67,7.38-7.45,3.08-1.78,6.42-2.66,10.02-2.66,4.44,0,8.12,1.5,11.04,4.51,2.91,3.01,4.37,6.84,4.37,11.5,0,.85-.07,1.89-.22,3.13Zm-4.08-3.89c-.13-3.27-1.24-5.91-3.35-7.94-2.11-2.03-4.75-3.04-7.94-3.04-3.47,0-6.52.98-9.17,2.93-2.65,1.95-4.52,4.63-5.63,8.05h26.09Z"/>
      <path class="cls-4" d="m126.79,543.31h4.33l-3.49,26.34,16.82-12.94h6.95l-20.14,15.5,17.75,19.2h-5.96l-16.06-17.33-2.23,17.33h-4.46l6.51-48.1Z"/>
      <path class="cls-4" d="m155.34,556.71h4.22l-4.53,34.71h-4.38l4.69-34.71Zm3.5-14.29c.98,0,1.82.35,2.52,1.05.7.7,1.05,1.54,1.05,2.52s-.35,1.85-1.05,2.54c-.7.69-1.54,1.04-2.52,1.04s-1.85-.35-2.54-1.04c-.69-.69-1.04-1.54-1.04-2.54s.35-1.82,1.04-2.52c.69-.7,1.54-1.05,2.54-1.05Z"/>
      <path class="cls-4" d="m167.65,556.71h4.28l-.71,5.4c3.53-4.19,7.63-6.29,12.32-6.29,3.59,0,6.49,1.1,8.69,3.3,2.2,2.2,3.3,5.16,3.3,8.88,0,1.49-.24,3.99-.71,7.5l-2.15,15.92h-4.38l2.15-15.92c.46-3.4.69-5.92.69-7.54,0-2.43-.74-4.39-2.21-5.89-1.47-1.49-3.41-2.24-5.8-2.24s-4.53.61-6.55,1.82c-2.02,1.21-3.58,2.85-4.69,4.93-1.11,2.07-1.96,5.35-2.56,9.84l-1.99,15h-4.38l4.69-34.71Z"/>
      <path class="cls-4" d="m235.34,556.71h4.36l-3.97,29.38c-.64,4.74-1.41,8.06-2.33,9.95-1.25,2.62-3.34,4.76-6.25,6.44-2.91,1.68-6.36,2.52-10.33,2.52s-7.24-.8-10-2.39c-2.75-1.59-4.84-3.9-6.26-6.92l3.99-1.44c2.42,4.4,6.51,6.6,12.27,6.6,3.04,0,5.67-.62,7.89-1.85,2.22-1.23,3.81-2.82,4.77-4.75.57-1.17,1.16-3.71,1.75-7.62l.19-1.35c-3.75,4.09-8.33,6.14-13.73,6.14-4.78,0-8.63-1.46-11.55-4.39-2.91-2.92-4.37-6.73-4.37-11.4,0-3.45.89-6.68,2.66-9.71,1.77-3.03,4.21-5.47,7.32-7.32,3.11-1.85,6.27-2.78,9.47-2.78,2.67,0,5.12.6,7.32,1.8,2.21,1.2,4.17,3.1,5.89,5.69l.91-6.6Zm-13.22,3.35c-2.91,0-5.61.7-8.1,2.09-2.49,1.39-4.42,3.28-5.79,5.66-1.37,2.38-2.05,5.05-2.05,8.01,0,3.4,1.08,6.15,3.25,8.23,2.16,2.08,5.07,3.13,8.72,3.13,4.41,0,8.08-1.45,11-4.34,2.92-2.89,4.38-6.54,4.38-10.94,0-3.87-1.19-6.81-3.57-8.82-2.38-2.01-4.99-3.01-7.83-3.01Z"/>
      <path class="cls-4" d="m279.87,544.49l-.61,4.24c-1.63-1.53-3.16-2.3-4.6-2.3-.91,0-1.7.43-2.35,1.3-.65.86-1.16,2.61-1.53,5.25l-.5,3.73h7.29l-.48,3.89h-7.34l-4.14,30.81h-4.38l4.17-30.81h-4.17l.48-3.89h4.22l.41-3.06c.52-3.59,1.07-6,1.65-7.21.58-1.21,1.45-2.19,2.59-2.92,1.14-.73,2.4-1.1,3.78-1.1,1.81,0,3.64.69,5.5,2.07Z"/>
      <path class="cls-4" d="m299.2,555.81c2.96,0,5.67.71,8.13,2.12,2.47,1.41,4.39,3.38,5.77,5.9s2.07,5.37,2.07,8.56c0,3.64-.88,7.01-2.65,10.13-1.77,3.12-4.14,5.52-7.11,7.22-2.98,1.7-6.35,2.55-10.11,2.55-4.66,0-8.49-1.53-11.5-4.58-3.01-3.05-4.51-6.94-4.51-11.66,0-3.7.88-7.11,2.65-10.24,1.76-3.13,4.18-5.58,7.26-7.35,3.07-1.78,6.41-2.66,10-2.66Zm-.11,4.24c-2.77,0-5.37.69-7.81,2.07-2.44,1.38-4.31,3.28-5.62,5.69-1.31,2.41-1.96,5.08-1.96,7.99,0,3.66,1.13,6.63,3.39,8.92,2.26,2.29,5.17,3.43,8.75,3.43,2.79,0,5.32-.66,7.58-1.99,2.27-1.33,4.07-3.25,5.41-5.76,1.34-2.51,2.01-5.2,2.01-8.07,0-2.4-.5-4.53-1.5-6.4-1-1.86-2.42-3.31-4.25-4.34-1.83-1.03-3.83-1.55-6-1.55Z"/>
      <path class="cls-4" d="m322.86,556.71h4.47l-.6,4.37c1.19-1.66,2.63-2.95,4.31-3.87,1.68-.92,3.41-1.39,5.17-1.39,1.26,0,2.57.3,3.93.89l-2.11,4.08c-1.1-.45-2.03-.67-2.77-.67-1.55,0-3.08.54-4.6,1.63-1.52,1.09-2.75,2.66-3.69,4.74-.95,2.07-1.74,5.48-2.4,10.23l-2.03,14.7h-4.38l4.69-34.71Z"/>
      <path class="cls-4" d="m380.58,581.25l7.5,3.89c-1.68,2.21-3.91,3.95-6.68,5.24-2.77,1.28-5.85,1.93-9.23,1.93-5.29,0-9.47-1.49-12.52-4.47-3.05-2.98-4.58-6.93-4.58-11.87,0-5.64,1.91-10.4,5.73-14.31,3.82-3.9,8.43-5.85,13.83-5.85,3.25,0,6.15.71,8.69,2.14,2.54,1.42,4.55,3.5,6.01,6.22,1.47,2.72,2.2,5.68,2.2,8.87,0,1-.11,2.17-.32,3.51h-27.69c.09,2.41.88,4.33,2.38,5.77,1.5,1.43,3.57,2.15,6.2,2.15,3.19,0,6.02-1.07,8.48-3.2Zm2.17-10.96c-.64-2.13-1.7-3.74-3.19-4.83-1.49-1.1-3.29-1.64-5.39-1.64s-3.97.56-5.65,1.69c-1.68,1.13-2.96,2.72-3.83,4.78h18.05Z"/>
      <path class="cls-4" d="m395.22,556.71h9.38l6.03,9.84,7.24-9.84h9.92l-12.65,17.2,10.73,17.51h-9.38l-6.47-10.55-7.76,10.55h-9.92l13.17-17.91-10.3-16.8Z"/>
      <path class="cls-4" d="m466.14,563.88l-7.21,3.92c-2.04-2.59-4.78-3.89-8.22-3.89-2.32,0-4.37.49-6.15,1.48-1.79.99-3.21,2.42-4.27,4.28-1.06,1.87-1.59,3.84-1.59,5.92,0,2.68.84,4.82,2.52,6.43,1.68,1.61,3.98,2.42,6.92,2.42,4.06,0,7.17-1.37,9.34-4.11l6.7,4.73c-1.89,2.26-4.25,4.03-7.07,5.31-2.82,1.28-5.96,1.92-9.43,1.92-5.4,0-9.66-1.49-12.78-4.47-3.12-2.98-4.68-6.91-4.68-11.8,0-5.59,1.93-10.36,5.78-14.31,3.85-3.94,8.81-5.92,14.87-5.92,6.83,0,11.92,2.69,15.29,8.07Z"/>
      <path class="cls-4" d="m495.91,581.25l7.5,3.89c-1.68,2.21-3.91,3.95-6.68,5.24-2.77,1.28-5.85,1.93-9.23,1.93-5.29,0-9.47-1.49-12.52-4.47-3.05-2.98-4.58-6.93-4.58-11.87,0-5.64,1.91-10.4,5.73-14.31,3.82-3.9,8.43-5.85,13.83-5.85,3.25,0,6.15.71,8.69,2.14,2.54,1.42,4.55,3.5,6.01,6.22,1.47,2.72,2.2,5.68,2.2,8.87,0,1-.11,2.17-.32,3.51h-27.69c.09,2.41.88,4.33,2.38,5.77,1.5,1.43,3.57,2.15,6.2,2.15,3.19,0,6.02-1.07,8.48-3.2Zm2.17-10.96c-.64-2.13-1.7-3.74-3.19-4.83-1.49-1.1-3.29-1.64-5.39-1.64s-3.97.56-5.65,1.69c-1.68,1.13-2.96,2.72-3.83,4.78h18.05Z"/>
      <path class="cls-4" d="m515.65,543.31h8.5l-6.57,48.1h-8.5l6.57-48.1Z"/>
      <path class="cls-4" d="m529.68,543.31h8.5l-6.57,48.1h-8.5l6.57-48.1Z"/>
      <path class="cls-4" d="m564.15,581.25l7.5,3.89c-1.68,2.21-3.91,3.95-6.68,5.24-2.77,1.28-5.85,1.93-9.23,1.93-5.29,0-9.47-1.49-12.52-4.47-3.05-2.98-4.58-6.93-4.58-11.87,0-5.64,1.91-10.4,5.73-14.31,3.82-3.9,8.43-5.85,13.83-5.85,3.25,0,6.15.71,8.69,2.14,2.54,1.42,4.55,3.5,6.01,6.22,1.47,2.72,2.2,5.68,2.2,8.87,0,1-.11,2.17-.32,3.51h-27.69c.09,2.41.88,4.33,2.38,5.77,1.5,1.43,3.57,2.15,6.2,2.15,3.19,0,6.02-1.07,8.48-3.2Zm2.17-10.96c-.64-2.13-1.7-3.74-3.19-4.83-1.49-1.1-3.29-1.64-5.39-1.64s-3.97.56-5.65,1.69c-1.68,1.13-2.96,2.72-3.83,4.78h18.05Z"/>
      <path class="cls-4" d="m583.08,556.71h8.5l-.48,3.52c3.26-2.94,6.64-4.41,10.16-4.41,3,0,5.46.95,7.38,2.86,1.92,1.91,2.87,4.31,2.87,7.2,0,1.36-.18,3.4-.54,6.1l-2.66,19.44h-8.5l2.59-18.98c.26-1.96.38-3.42.38-4.4,0-1.4-.4-2.48-1.2-3.24-.8-.75-1.94-1.13-3.41-1.13s-2.86.49-4.29,1.48c-1.43.99-2.53,2.36-3.3,4.11-.77,1.75-1.47,5.05-2.11,9.87l-1.63,12.28h-8.5l4.74-34.71Z"/>
      <path class="cls-4" d="m652.32,563.88l-7.21,3.92c-2.04-2.59-4.78-3.89-8.22-3.89-2.32,0-4.37.49-6.15,1.48-1.79.99-3.21,2.42-4.27,4.28-1.06,1.87-1.59,3.84-1.59,5.92,0,2.68.84,4.82,2.52,6.43,1.68,1.61,3.98,2.42,6.92,2.42,4.06,0,7.17-1.37,9.34-4.11l6.7,4.73c-1.89,2.26-4.25,4.03-7.07,5.31-2.82,1.28-5.96,1.92-9.43,1.92-5.4,0-9.66-1.49-12.78-4.47-3.12-2.98-4.68-6.91-4.68-11.8,0-5.59,1.93-10.36,5.78-14.31,3.85-3.94,8.81-5.92,14.87-5.92,6.83,0,11.92,2.69,15.29,8.07Z"/>
      <path class="cls-4" d="m682.09,581.25l7.5,3.89c-1.68,2.21-3.91,3.95-6.68,5.24-2.77,1.28-5.85,1.93-9.23,1.93-5.29,0-9.47-1.49-12.52-4.47-3.05-2.98-4.58-6.93-4.58-11.87,0-5.64,1.91-10.4,5.73-14.31,3.82-3.9,8.43-5.85,13.83-5.85,3.25,0,6.15.71,8.69,2.14,2.54,1.42,4.55,3.5,6.01,6.22,1.47,2.72,2.2,5.68,2.2,8.87,0,1-.11,2.17-.32,3.51h-27.69c.09,2.41.88,4.33,2.38,5.77,1.5,1.43,3.57,2.15,6.2,2.15,3.19,0,6.02-1.07,8.48-3.2Zm2.17-10.96c-.64-2.13-1.7-3.74-3.19-4.83-1.49-1.1-3.29-1.64-5.39-1.64s-3.97.56-5.65,1.69c-1.68,1.13-2.96,2.72-3.83,4.78h18.05Z"/>
    </g>
  </g>
  <g>
    <path d="m550.84,91.15v-19.33h8.26c1.66,0,2.92.17,3.79.52s1.55.96,2.07,1.84c.52.88.78,1.85.78,2.91,0,1.37-.43,2.53-1.28,3.47-.86.94-2.18,1.54-3.96,1.79.65.33,1.15.65,1.49.96.72.69,1.4,1.54,2.05,2.57l3.24,5.26h-3.1l-2.46-4.02c-.72-1.16-1.31-2.05-1.78-2.66-.47-.62-.88-1.05-1.25-1.29-.37-.25-.74-.42-1.12-.51-.28-.06-.74-.09-1.37-.09h-2.86v8.59h-2.47Zm2.47-10.8h5.3c1.13,0,2.01-.12,2.64-.36.64-.24,1.12-.63,1.45-1.16.33-.53.5-1.11.5-1.73,0-.91-.32-1.67-.96-2.26-.64-.59-1.65-.88-3.03-.88h-5.9v6.4Z"/>
    <path d="m557.87,99.07c-9.65,0-17.5-7.85-17.5-17.5s7.85-17.5,17.5-17.5,17.5,7.85,17.5,17.5-7.85,17.5-17.5,17.5Zm0-33.32c-8.72,0-15.82,7.1-15.82,15.82s7.1,15.82,15.82,15.82,15.82-7.1,15.82-15.82-7.1-15.82-15.82-15.82Z"/>
  </g>
</svg>