<svg width="35" height="30" viewBox="0 0 35 30" xmlns="http://www.w3.org/2000/svg">
    <path fill="none" stroke="#564aeb" stroke-width="1.5" d="M9 23H5v-5m0-9V4h17v19h-7m-3-3c1.7 0 3 1.4 3 3s-1.4 3-3 3-3-1.3-3-3 1.4-3 3-3zm16 0c1.7 0 3 1.4 3 3s-1.4 3-3 3-3-1.3-3-3 1.4-3 3-3zm3 3h3V12l-5-5h-7m0 16h3m9-7H22" />
    <path fill="#564aeb" d="M1.5 11.7v1.2h2.2v1.2H1.5v2.3H0v-5.9h4v1.2H1.5zm8 4.6l-1.6.1-1-2h-.7v2H4.7v-5.9H7c.4 0 .8.1 1.2.2.3.1.6.3.8.6s.3.6.3 1-.1.7-.2 1.1c-.2.3-.4.5-.7.6l1.1 2.3zm-3.3-3.1h.9c.2 0 .4-.1.5-.2.1-.1.2-.3.2-.5s-.1-.4-.2-.5c-.2-.1-.3-.2-.5-.2h-.9v1.4zm5.3-1.5v1.1h2.2V14h-2.2v1.2h2.6v1.2H10v-5.9h4.1v1.2h-2.6zm4.9 0v1.1h2.2V14h-2.2v1.2H19v1.2h-4.1v-5.9H19v1.2h-2.6z" />
</svg>
