<svg xmlns="http://www.w3.org/2000/svg" viewBox="0 0 960 970"><defs><style>.cls-1{fill:#fff;}</style></defs><g id="Livello_1" data-name="Livello 1"><path class="cls-1" d="M122.93,763.06c-48-66.38-77.57-139.28-85.88-220.13-12.32-119.8,17.72-228.48,92.26-323C268.76,43.11,514.55,4,698.83,119.59a407,407,0,0,1,60.58,46.17c10.37,9.61,22.51,10.6,33.93,4.16A28.48,28.48,0,0,0,807,139.69c-1.63-8.05-6.72-13.69-12.76-18.75a452.19,452.19,0,0,0-82.4-55.22C606.42,11.12,495.49-4,380,23.25,152.52,76.94-5.38,291.88,23.23,531.51c9.8,82.1,40.75,155.86,90.21,222C116.11,757,119.74,759.88,122.93,763.06Z"/><path class="cls-1" d="M848.08,222.08c41.11,62.36,66.94,130.11,74.58,204.21,12,116.58-15.92,222.75-86.73,316.6C703,919,462.84,967.59,272.3,857.32a399.16,399.16,0,0,1-70.15-51.45c-15.92-14.59-37-12-46.31,5.26-6.26,11.58-4.6,23.81,5.23,33.62,12.27,12.25,26.49,22.12,40.72,31.86,161.56,110.54,375,111.68,535.73.44C951.35,729,998.7,449.75,866.3,245.28,861,237,856,228.33,848.08,222.08Z"/><path class="cls-1" d="M268.3,170.64c23.19-13.87,46.11-26.76,71.07-35.37,134.5-46.39,259.2-28.52,370,61.76C838,301.8,877.2,477.74,808.61,628.61a343,343,0,0,1-54.53,84.27c-2.4,2.73-5,5.32-7.15,8.22-8.43,11.27-7.41,24.4,2.44,32.94s23.61,8.2,33-1.67a230.16,230.16,0,0,0,18-22.16c98.05-132.74,104.48-313.33,15-451.79C721.76,133.53,549,68.15,385.68,112.61A375,375,0,0,0,277,161.78C273.74,163.91,269.71,165.34,268.3,170.64Z"/><path class="cls-1" d="M692.81,798.45c-46.59,29.53-94.46,48.43-146.37,56-109.56,15.9-208.18-9.85-294.54-79.64C126,673,79.87,493.66,152.59,338.5a341.88,341.88,0,0,1,53.6-81.69,108.58,108.58,0,0,0,7.12-8.24c8.16-11.33,6.8-24.38-3.26-33-9.32-8-22.77-7.74-32,1.63a178.55,178.55,0,0,0-18.12,22.07c-69.31,97.21-93.69,204.5-69.44,321.6C125.65,730.8,271,857.45,444,870.06c85.71,6.25,164.78-14.26,237.13-60.65C684.89,807,689.11,805.13,692.81,798.45Z"/><rect class="cls-1" x="240.72" y="439.35" width="71.65" height="212.06"/><polygon class="cls-1" points="705.99 439.76 705.99 328.04 544.08 525.78 382.16 328.04 382.16 651.4 453.82 651.4 453.82 529.5 543.69 638.83 705.99 439.76"/><circle class="cls-1" cx="683.66" cy="612.58" r="38.82"/><circle class="cls-1" cx="276.55" cy="362.37" r="38.82"/></g></svg>